<svg width="1920" height="160" viewBox="0 0 1920 160" fill="none" xmlns="http://www.w3.org/2000/svg">
<path d="M492.336 94.7468C492.138 95.299 491.927 95.8414 491.697 96.3903C491.924 95.8414 492.138 95.3056 492.336 94.7468Z" fill="#263140"/>
<path d="M494.15 87.0388C494.084 87.6272 493.998 88.209 493.896 88.7907C493.995 88.209 494.081 87.6272 494.15 87.0388Z" fill="#263140"/>
<path d="M494.396 81.5004C494.396 80.935 494.35 80.373 494.308 79.8076C494.354 80.3565 494.383 80.9186 494.396 81.5004Z" fill="#263140"/>
<path d="M494.403 83.5024C494.403 83.0192 494.403 82.5327 494.403 82.0496C494.42 82.5327 494.416 83.0159 494.403 83.5024Z" fill="#263140"/>
<path d="M546 60.3658V87.9133C546 101.975 533.186 113.85 518.014 113.85C507.899 113.85 498.835 108.542 493.936 100.824C497.34 94.4805 498.855 86.9075 498.216 79.203C497.574 71.4065 494.769 64.1556 490.265 58.5547C490.691 56.2561 491.909 54.1787 493.708 52.6826C495.507 51.1866 497.774 50.3662 500.116 50.3638C502.772 50.3673 505.318 51.4223 507.195 53.2973C509.073 55.1724 510.129 57.7145 510.132 60.3658V87.9133C510.132 90.6611 513.572 93.8527 518.011 93.8527C522.021 93.8527 525.955 90.9109 525.955 87.9133V60.3658C525.957 59.0507 526.217 57.7488 526.723 56.5344C527.228 55.32 527.968 54.2169 528.901 53.288C529.833 52.3592 530.94 51.6229 532.158 51.1212C533.375 50.6194 534.68 50.3621 535.997 50.3638C538.651 50.3707 541.194 51.4273 543.068 53.302C544.943 55.1767 545.997 57.7167 546 60.3658Z" fill="#263140"/>
<path d="M372.031 65.4932C369.406 70.6389 368.045 76.3341 368.06 82.1085C368.051 89.5261 370.299 96.7714 374.507 102.885V103.444C374.505 106.096 373.448 108.638 371.57 110.513C369.691 112.389 367.145 113.443 364.488 113.446C361.832 113.442 359.286 112.387 357.409 110.512C355.531 108.637 354.475 106.095 354.472 103.444V92.1072H340.041V103.444C340.04 106.095 338.984 108.638 337.106 110.513C335.228 112.388 332.682 113.443 330.026 113.446C327.37 113.442 324.824 112.387 322.946 110.512C321.068 108.637 320.012 106.095 320.01 103.444V60.77C320.013 58.1192 321.07 55.578 322.947 53.7036C324.825 51.8293 327.37 50.7747 330.026 50.7712C332.681 50.7739 335.227 51.8281 337.105 53.7027C338.983 55.5772 340.039 58.1189 340.041 60.77V72.1065H354.472V60.77C354.476 58.1192 355.532 55.578 357.41 53.7036C359.287 51.8293 361.833 50.7747 364.488 50.7712C367.144 50.7738 369.69 51.828 371.569 53.7025C373.447 55.577 374.504 58.1186 374.507 60.77V61.3386C373.591 62.6675 372.764 64.0554 372.031 65.4932Z" fill="#263140"/>
<path d="M461.116 70.6833C460.672 70.6833 460.221 70.6833 459.766 70.6833C460.336 70.6833 460.899 70.6833 461.452 70.6833H461.116ZM477.131 111.369C477.562 111.181 477.987 110.987 478.402 110.78C477.987 110.984 477.562 111.181 477.131 111.369ZM491.697 96.377C491.927 95.8412 492.138 95.2989 492.336 94.7336C492.138 95.3055 491.924 95.8412 491.697 96.377ZM493.896 88.7908C493.998 88.2091 494.084 87.6273 494.15 87.0389C494.081 87.6273 493.995 88.2091 493.896 88.7908ZM494.308 79.7913C494.351 80.3567 494.38 80.9187 494.397 81.4841C494.384 80.9187 494.354 80.3567 494.308 79.7913ZM494.41 82.0494C494.41 82.5326 494.41 83.0191 494.41 83.5022C494.416 83.0158 494.42 82.5326 494.41 82.0494Z" fill="#263140"/>
<path d="M494.41 82.0494C494.354 76.1979 492.863 70.4493 490.067 65.3059C489.349 64.0157 488.54 62.7778 487.647 61.6016C487.282 61.1283 486.91 60.6648 486.518 60.2145C484.765 58.1829 482.72 56.4218 480.45 54.9884C479.781 54.564 479.091 54.1734 478.382 53.8182C477.753 53.4895 477.105 53.2003 476.449 52.9275C473.382 51.6867 470.125 50.9764 466.819 50.8271C463.177 50.7713 459.213 50.8041 455.479 50.7384C451.367 50.7713 447.192 50.5609 443.119 51.0934C438.428 52.2339 435.237 56.806 435.59 61.6114C443.962 73.51 443.798 90.9503 435.59 102.622C435.483 104.398 435.822 106.171 436.577 107.782C437.396 109.479 438.677 110.911 440.274 111.913C441.871 112.916 443.719 113.448 445.605 113.449H453.596C464.409 113.449 469.729 113.564 472.531 112.933C477.947 111.634 482.839 108.721 486.557 104.581C486.887 104.226 487.19 103.861 487.489 103.487C487.789 103.112 488.029 102.796 488.292 102.445C492.556 96.584 494.512 89.2477 494.41 82.0494ZM474.583 83.1439C474.385 85.287 473.924 87.4662 472.752 89.2937C472.383 89.8774 471.941 90.411 471.435 90.8813C470.448 91.7589 469.277 92.4057 468.007 92.7745C463.964 93.9512 459.796 93.4319 455.614 93.4582V70.7786C457.001 70.7786 458.397 70.7227 459.779 70.703C465.094 70.565 471.616 70.8575 473.667 76.741C474.413 78.7891 474.725 80.9694 474.583 83.1439Z" fill="#263140"/>
<path d="M423.43 45.9526C423.525 46.072 423.609 46.1996 423.681 46.3339C423.609 46.1994 423.525 46.0717 423.43 45.9526ZM386.021 46.7678C386.063 46.6169 386.119 46.4705 386.189 46.3306C386.117 46.4699 386.061 46.6165 386.021 46.7678Z" fill="#263140"/>
<path d="M435.576 69.9964C433.353 64.4255 429.653 59.5637 424.872 55.9317C424.899 55.7542 423.97 47.422 423.967 47.2412C423.901 46.629 423.611 46.0626 423.152 45.6512C422.693 45.2398 422.098 45.0124 421.481 45.0127C420.332 44.7136 414.366 49.8082 413.385 50.3078C407.856 48.855 402.044 48.855 396.514 50.3078C395.487 49.7787 389.6 44.7398 388.418 45.0127C387.801 45.0138 387.207 45.2416 386.747 45.6527C386.288 46.0637 385.997 46.6292 385.929 47.2412C385.929 47.4253 385.01 55.7444 385.023 55.9284C360.218 74.5421 373.424 114.994 404.956 114.994C427.885 115.444 444.305 90.6742 435.576 69.9964ZM404.956 94.9768C388.033 94.6777 387.98 69.5822 404.89 69.2075C421.883 69.4474 421.945 94.6842 404.956 94.9932V94.9768Z" fill="#263140"/>
<circle cx="1580" cy="80" r="20" fill="#F29D52"/>
<path d="M1590.47 75.1143C1590.35 74.6623 1590.12 74.2482 1589.8 73.9138C1589.47 73.5793 1589.07 73.3364 1588.62 73.2096C1586.98 72.8096 1580.43 72.8096 1580.43 72.8096C1580.43 72.8096 1573.88 72.8096 1572.24 73.2477C1571.79 73.3745 1571.38 73.6174 1571.06 73.9519C1570.73 74.2863 1570.5 74.7004 1570.39 75.1524C1570.09 76.8149 1569.94 78.5013 1569.95 80.1905C1569.94 81.8925 1570.09 83.5918 1570.39 85.2667C1570.52 85.7047 1570.75 86.103 1571.07 86.4234C1571.4 86.7437 1571.8 86.9751 1572.24 87.0953C1573.88 87.5334 1580.43 87.5334 1580.43 87.5334C1580.43 87.5334 1586.98 87.5334 1588.62 87.0953C1589.07 86.9684 1589.47 86.7255 1589.8 86.3911C1590.12 86.0566 1590.35 85.6425 1590.47 85.1905C1590.76 83.5406 1590.91 81.867 1590.9 80.1905C1590.92 78.4886 1590.77 76.7893 1590.47 75.1143Z" fill="white"/>
<path d="M1578.29 83.3047L1583.76 80.1905L1578.29 77.0762V83.3047Z" fill="#F29D52"/>
<circle cx="1520" cy="80" r="20" fill="#F29D52"/>
<path d="M1525.19 70.9048H1522.33C1521.07 70.9048 1519.86 71.4065 1518.97 72.2995C1518.07 73.1925 1517.57 74.4038 1517.57 75.6667V78.5238H1514.71V82.3334H1517.57V89.9524H1521.38V82.3334H1524.24L1525.19 78.5238H1521.38V75.6667C1521.38 75.4141 1521.48 75.1719 1521.66 74.9933C1521.84 74.8146 1522.08 74.7143 1522.33 74.7143H1525.19V70.9048Z" fill="white"/>
<circle cx="1460" cy="80" r="20" fill="#F29D52"/>
<path d="M1465 70H1455C1452.24 70 1450 72.2386 1450 75V85C1450 87.7614 1452.24 90 1455 90H1465C1467.76 90 1470 87.7614 1470 85V75C1470 72.2386 1467.76 70 1465 70Z" stroke="white" stroke-width="2" stroke-linecap="round" stroke-linejoin="round"/>
<path d="M1464 79.3701C1464.12 80.2023 1463.98 81.0523 1463.59 81.7991C1463.21 82.5459 1462.59 83.1515 1461.84 83.5297C1461.09 83.908 1460.24 84.0397 1459.41 83.906C1458.58 83.7723 1457.81 83.3801 1457.21 82.7852C1456.62 82.1903 1456.23 81.4229 1456.09 80.5923C1455.96 79.7616 1456.09 78.91 1456.47 78.1584C1456.85 77.4069 1457.45 76.7938 1458.2 76.4063C1458.95 76.0188 1459.8 75.8766 1460.63 76.0001C1461.48 76.1259 1462.26 76.5215 1462.87 77.1284C1463.48 77.7352 1463.87 78.5211 1464 79.3701Z" stroke="white" stroke-width="2" stroke-linecap="round" stroke-linejoin="round"/>
<path d="M1465.5 74.5H1465.51" stroke="white" stroke-width="2" stroke-linecap="round" stroke-linejoin="round"/>
<circle cx="1400" cy="80" r="20" fill="#F29D52"/>
<path d="M1400.1 75.1848C1398.79 75.1848 1397.57 75.546 1396.53 76.1759V70H1392V88.6457H1396.53V88.0089C1397.57 88.6364 1398.79 89 1400.1 89C1403.91 89 1407 85.9063 1407 82.0924C1407 78.2762 1403.91 75.1848 1400.1 75.1848ZM1399.43 84.8781C1397.83 84.8781 1396.53 83.5814 1396.53 81.9835C1396.53 80.3857 1397.83 79.089 1399.43 79.089C1401.02 79.089 1402.32 80.3857 1402.32 81.9835C1402.32 83.5837 1401.02 84.8781 1399.43 84.8781Z" fill="white"/>
</svg>
